<mxfile host="app.diagrams.net" agent="Mozilla/5.0 (Windows NT 10.0; Win64; x64) AppleWebKit/537.36 (KHTML, like Gecko) Chrome/140.0.0.0 Safari/537.36" version="28.2.3" pages="4">
  <diagram name="Page-1" id="DcoITBiWDO1I1751Xfkz">
    <mxGraphModel dx="1426" dy="743" grid="1" gridSize="10" guides="1" tooltips="1" connect="1" arrows="1" fold="1" page="1" pageScale="1" pageWidth="827" pageHeight="1169" math="0" shadow="0">
      <root>
        <mxCell id="0" />
        <mxCell id="1" parent="0" />
        <mxCell id="AgQzvdhxPgLLRKbqJ8Vr-44" value="" style="rounded=1;whiteSpace=wrap;html=1;fillColor=#cce5ff;strokeColor=#36393d;" parent="1" vertex="1">
          <mxGeometry x="60" y="160" width="730" height="460" as="geometry" />
        </mxCell>
        <mxCell id="AgQzvdhxPgLLRKbqJ8Vr-1" value="" style="rounded=1;whiteSpace=wrap;html=1;shadow=0;fillColor=#f8cecc;strokeColor=#b85450;" parent="1" vertex="1">
          <mxGeometry x="311" y="310" width="250" height="80" as="geometry" />
        </mxCell>
        <mxCell id="YvGy8sxPHNw13Y6ly3FE-1" value="Postgres_external" style="rounded=0;whiteSpace=wrap;html=1;" parent="1" vertex="1">
          <mxGeometry x="320" y="320" width="110" height="60" as="geometry" />
        </mxCell>
        <mxCell id="AgQzvdhxPgLLRKbqJ8Vr-2" value="Postgres_admin" style="rounded=0;whiteSpace=wrap;html=1;" parent="1" vertex="1">
          <mxGeometry x="451" y="320" width="100" height="60" as="geometry" />
        </mxCell>
        <mxCell id="AgQzvdhxPgLLRKbqJ8Vr-3" value="" style="rounded=1;whiteSpace=wrap;html=1;shadow=0;fillColor=#f8cecc;strokeColor=#b85450;" parent="1" vertex="1">
          <mxGeometry x="315" y="190" width="120" height="80" as="geometry" />
        </mxCell>
        <mxCell id="AgQzvdhxPgLLRKbqJ8Vr-5" value="Ingestion" style="rounded=0;whiteSpace=wrap;html=1;" parent="1" vertex="1">
          <mxGeometry x="325" y="200" width="100" height="60" as="geometry" />
        </mxCell>
        <mxCell id="AgQzvdhxPgLLRKbqJ8Vr-6" value="" style="rounded=1;whiteSpace=wrap;html=1;shadow=0;fillColor=#f8cecc;strokeColor=#b85450;" parent="1" vertex="1">
          <mxGeometry x="611" y="368.98" width="140" height="240" as="geometry" />
        </mxCell>
        <mxCell id="AgQzvdhxPgLLRKbqJ8Vr-7" value="Grafana" style="rounded=0;whiteSpace=wrap;html=1;" parent="1" vertex="1">
          <mxGeometry x="625" y="538.98" width="106" height="60" as="geometry" />
        </mxCell>
        <mxCell id="AgQzvdhxPgLLRKbqJ8Vr-8" value="Prometheus" style="rounded=0;whiteSpace=wrap;html=1;" parent="1" vertex="1">
          <mxGeometry x="628" y="458.98" width="106" height="60" as="geometry" />
        </mxCell>
        <mxCell id="AgQzvdhxPgLLRKbqJ8Vr-9" value="Docker_exporter" style="rounded=0;whiteSpace=wrap;html=1;" parent="1" vertex="1">
          <mxGeometry x="628" y="378.98" width="106" height="60" as="geometry" />
        </mxCell>
        <mxCell id="AgQzvdhxPgLLRKbqJ8Vr-10" value="" style="rounded=1;whiteSpace=wrap;html=1;shadow=0;fillColor=#f8cecc;strokeColor=#b85450;" parent="1" vertex="1">
          <mxGeometry x="75" y="428.98" width="250" height="170" as="geometry" />
        </mxCell>
        <mxCell id="AgQzvdhxPgLLRKbqJ8Vr-11" value="Spark_worker_2" style="rounded=0;whiteSpace=wrap;html=1;" parent="1" vertex="1">
          <mxGeometry x="209" y="525" width="106" height="60" as="geometry" />
        </mxCell>
        <mxCell id="AgQzvdhxPgLLRKbqJ8Vr-12" value="Spark_worker_1" style="rounded=0;whiteSpace=wrap;html=1;" parent="1" vertex="1">
          <mxGeometry x="89" y="525" width="106" height="60" as="geometry" />
        </mxCell>
        <mxCell id="AgQzvdhxPgLLRKbqJ8Vr-13" value="Spark_master" style="rounded=0;whiteSpace=wrap;html=1;" parent="1" vertex="1">
          <mxGeometry x="151" y="440" width="106" height="60" as="geometry" />
        </mxCell>
        <mxCell id="AgQzvdhxPgLLRKbqJ8Vr-14" value="" style="rounded=1;whiteSpace=wrap;html=1;shadow=0;fillColor=#f8cecc;strokeColor=#b85450;" parent="1" vertex="1">
          <mxGeometry x="611" y="230" width="120" height="80" as="geometry" />
        </mxCell>
        <mxCell id="AgQzvdhxPgLLRKbqJ8Vr-15" value="Mailhog" style="rounded=0;whiteSpace=wrap;html=1;" parent="1" vertex="1">
          <mxGeometry x="621" y="240" width="100" height="60" as="geometry" />
        </mxCell>
        <mxCell id="AgQzvdhxPgLLRKbqJ8Vr-16" value="" style="rounded=1;whiteSpace=wrap;html=1;shadow=0;fillColor=#f8cecc;strokeColor=#b85450;" parent="1" vertex="1">
          <mxGeometry x="100" y="260" width="160" height="120" as="geometry" />
        </mxCell>
        <mxCell id="AgQzvdhxPgLLRKbqJ8Vr-23" value="Airflow&lt;br&gt;(9 containeurs)" style="rounded=0;whiteSpace=wrap;html=1;" parent="1" vertex="1">
          <mxGeometry x="127" y="290" width="106" height="60" as="geometry" />
        </mxCell>
        <mxCell id="AgQzvdhxPgLLRKbqJ8Vr-26" value="" style="endArrow=classic;html=1;rounded=0;entryX=0.5;entryY=0;entryDx=0;entryDy=0;" parent="1" source="AgQzvdhxPgLLRKbqJ8Vr-5" target="YvGy8sxPHNw13Y6ly3FE-1" edge="1">
          <mxGeometry width="50" height="50" relative="1" as="geometry">
            <mxPoint x="431" y="430" as="sourcePoint" />
            <mxPoint x="481" y="380" as="targetPoint" />
          </mxGeometry>
        </mxCell>
        <mxCell id="AgQzvdhxPgLLRKbqJ8Vr-30" value="Yfinance" style="ellipse;whiteSpace=wrap;html=1;" parent="1" vertex="1">
          <mxGeometry x="315" y="85" width="80" height="50" as="geometry" />
        </mxCell>
        <mxCell id="AgQzvdhxPgLLRKbqJ8Vr-32" value="" style="endArrow=classic;html=1;rounded=0;exitX=0.5;exitY=1;exitDx=0;exitDy=0;entryX=0.29;entryY=0;entryDx=0;entryDy=0;entryPerimeter=0;" parent="1" source="AgQzvdhxPgLLRKbqJ8Vr-30" target="AgQzvdhxPgLLRKbqJ8Vr-5" edge="1">
          <mxGeometry width="50" height="50" relative="1" as="geometry">
            <mxPoint x="451" y="300" as="sourcePoint" />
            <mxPoint x="501" y="250" as="targetPoint" />
          </mxGeometry>
        </mxCell>
        <mxCell id="AgQzvdhxPgLLRKbqJ8Vr-33" value="" style="endArrow=classic;html=1;rounded=0;exitX=1;exitY=0.5;exitDx=0;exitDy=0;entryX=0.009;entryY=0.117;entryDx=0;entryDy=0;entryPerimeter=0;" parent="1" source="AgQzvdhxPgLLRKbqJ8Vr-23" target="YvGy8sxPHNw13Y6ly3FE-1" edge="1">
          <mxGeometry width="50" height="50" relative="1" as="geometry">
            <mxPoint x="361" y="380" as="sourcePoint" />
            <mxPoint x="411" y="330" as="targetPoint" />
          </mxGeometry>
        </mxCell>
        <mxCell id="AgQzvdhxPgLLRKbqJ8Vr-34" value="" style="endArrow=classic;html=1;rounded=0;exitX=0;exitY=0.5;exitDx=0;exitDy=0;entryX=0.998;entryY=0.861;entryDx=0;entryDy=0;entryPerimeter=0;" parent="1" source="YvGy8sxPHNw13Y6ly3FE-1" target="AgQzvdhxPgLLRKbqJ8Vr-23" edge="1">
          <mxGeometry width="50" height="50" relative="1" as="geometry">
            <mxPoint x="271" y="360" as="sourcePoint" />
            <mxPoint x="321" y="310" as="targetPoint" />
          </mxGeometry>
        </mxCell>
        <mxCell id="AgQzvdhxPgLLRKbqJ8Vr-35" value="" style="endArrow=classic;html=1;rounded=0;exitX=0.25;exitY=1;exitDx=0;exitDy=0;entryX=0.117;entryY=0.029;entryDx=0;entryDy=0;entryPerimeter=0;" parent="1" target="AgQzvdhxPgLLRKbqJ8Vr-13" edge="1">
          <mxGeometry width="50" height="50" relative="1" as="geometry">
            <mxPoint x="162.5" y="349.9999999999999" as="sourcePoint" />
            <mxPoint x="310" y="380" as="targetPoint" />
          </mxGeometry>
        </mxCell>
        <mxCell id="AgQzvdhxPgLLRKbqJ8Vr-36" value="" style="endArrow=classic;html=1;rounded=0;exitX=0.5;exitY=0;exitDx=0;exitDy=0;entryX=0.639;entryY=1;entryDx=0;entryDy=0;entryPerimeter=0;" parent="1" source="AgQzvdhxPgLLRKbqJ8Vr-13" edge="1">
          <mxGeometry width="50" height="50" relative="1" as="geometry">
            <mxPoint x="150" y="380" as="sourcePoint" />
            <mxPoint x="203.73400000000015" y="349.9999999999999" as="targetPoint" />
          </mxGeometry>
        </mxCell>
        <mxCell id="AgQzvdhxPgLLRKbqJ8Vr-37" value="" style="endArrow=classic;html=1;rounded=0;exitX=0;exitY=1;exitDx=0;exitDy=0;entryX=0.25;entryY=0;entryDx=0;entryDy=0;" parent="1" source="AgQzvdhxPgLLRKbqJ8Vr-13" target="AgQzvdhxPgLLRKbqJ8Vr-12" edge="1">
          <mxGeometry width="50" height="50" relative="1" as="geometry">
            <mxPoint x="260" y="430" as="sourcePoint" />
            <mxPoint x="310" y="380" as="targetPoint" />
          </mxGeometry>
        </mxCell>
        <mxCell id="AgQzvdhxPgLLRKbqJ8Vr-38" value="" style="endArrow=classic;html=1;rounded=0;exitX=0.571;exitY=0.069;exitDx=0;exitDy=0;entryX=0.25;entryY=1;entryDx=0;entryDy=0;exitPerimeter=0;" parent="1" source="AgQzvdhxPgLLRKbqJ8Vr-12" target="AgQzvdhxPgLLRKbqJ8Vr-13" edge="1">
          <mxGeometry width="50" height="50" relative="1" as="geometry">
            <mxPoint x="165" y="510" as="sourcePoint" />
            <mxPoint x="130" y="535" as="targetPoint" />
          </mxGeometry>
        </mxCell>
        <mxCell id="AgQzvdhxPgLLRKbqJ8Vr-39" value="" style="endArrow=classic;html=1;rounded=0;exitX=0.75;exitY=0;exitDx=0;exitDy=0;entryX=0.953;entryY=1.028;entryDx=0;entryDy=0;entryPerimeter=0;" parent="1" source="AgQzvdhxPgLLRKbqJ8Vr-11" target="AgQzvdhxPgLLRKbqJ8Vr-13" edge="1">
          <mxGeometry width="50" height="50" relative="1" as="geometry">
            <mxPoint x="200" y="549" as="sourcePoint" />
            <mxPoint x="228" y="520" as="targetPoint" />
          </mxGeometry>
        </mxCell>
        <mxCell id="AgQzvdhxPgLLRKbqJ8Vr-40" value="" style="endArrow=classic;html=1;rounded=0;exitX=0.56;exitY=1;exitDx=0;exitDy=0;entryX=0.25;entryY=0;entryDx=0;entryDy=0;exitPerimeter=0;" parent="1" source="AgQzvdhxPgLLRKbqJ8Vr-13" target="AgQzvdhxPgLLRKbqJ8Vr-11" edge="1">
          <mxGeometry width="50" height="50" relative="1" as="geometry">
            <mxPoint x="297" y="533" as="sourcePoint" />
            <mxPoint x="260" y="510" as="targetPoint" />
          </mxGeometry>
        </mxCell>
        <mxCell id="AgQzvdhxPgLLRKbqJ8Vr-41" value="" style="endArrow=classic;html=1;rounded=0;exitX=1;exitY=0.25;exitDx=0;exitDy=0;entryX=0;entryY=0.313;entryDx=0;entryDy=0;entryPerimeter=0;" parent="1" source="YvGy8sxPHNw13Y6ly3FE-1" target="AgQzvdhxPgLLRKbqJ8Vr-2" edge="1">
          <mxGeometry width="50" height="50" relative="1" as="geometry">
            <mxPoint x="451" y="360" as="sourcePoint" />
            <mxPoint x="501" y="310" as="targetPoint" />
          </mxGeometry>
        </mxCell>
        <mxCell id="AgQzvdhxPgLLRKbqJ8Vr-42" value="" style="endArrow=classic;html=1;rounded=0;exitX=0.012;exitY=0.607;exitDx=0;exitDy=0;entryX=0.995;entryY=0.62;entryDx=0;entryDy=0;entryPerimeter=0;exitPerimeter=0;" parent="1" source="AgQzvdhxPgLLRKbqJ8Vr-2" target="YvGy8sxPHNw13Y6ly3FE-1" edge="1">
          <mxGeometry width="50" height="50" relative="1" as="geometry">
            <mxPoint x="431" y="330" as="sourcePoint" />
            <mxPoint x="452" y="334" as="targetPoint" />
          </mxGeometry>
        </mxCell>
        <mxCell id="AgQzvdhxPgLLRKbqJ8Vr-45" value="" style="rounded=1;whiteSpace=wrap;html=1;fillColor=#cce5ff;strokeColor=#36393d;" parent="1" vertex="1">
          <mxGeometry x="430" y="75" width="40" height="20" as="geometry" />
        </mxCell>
        <mxCell id="AgQzvdhxPgLLRKbqJ8Vr-46" value="= Docker / Serveur" style="text;html=1;align=center;verticalAlign=middle;whiteSpace=wrap;rounded=0;" parent="1" vertex="1">
          <mxGeometry x="470" y="70" width="110" height="30" as="geometry" />
        </mxCell>
        <mxCell id="AgQzvdhxPgLLRKbqJ8Vr-47" value="" style="rounded=1;whiteSpace=wrap;html=1;fillColor=#f8cecc;strokeColor=#b85450;" parent="1" vertex="1">
          <mxGeometry x="430" y="100" width="40" height="20" as="geometry" />
        </mxCell>
        <mxCell id="AgQzvdhxPgLLRKbqJ8Vr-48" value="= Docker Compose" style="text;html=1;align=center;verticalAlign=middle;whiteSpace=wrap;rounded=0;" parent="1" vertex="1">
          <mxGeometry x="472" y="95" width="110" height="30" as="geometry" />
        </mxCell>
        <mxCell id="AgQzvdhxPgLLRKbqJ8Vr-49" value="" style="rounded=0;whiteSpace=wrap;html=1;" parent="1" vertex="1">
          <mxGeometry x="434" y="125" width="32" height="20" as="geometry" />
        </mxCell>
        <mxCell id="AgQzvdhxPgLLRKbqJ8Vr-50" value="&amp;nbsp;= Containeur" style="text;html=1;align=center;verticalAlign=middle;whiteSpace=wrap;rounded=0;" parent="1" vertex="1">
          <mxGeometry x="472" y="120" width="80" height="30" as="geometry" />
        </mxCell>
        <mxCell id="AgQzvdhxPgLLRKbqJ8Vr-51" value="" style="endArrow=classic;html=1;rounded=0;entryX=0.995;entryY=0.518;entryDx=0;entryDy=0;entryPerimeter=0;exitX=0.987;exitY=0.348;exitDx=0;exitDy=0;exitPerimeter=0;" parent="1" source="AgQzvdhxPgLLRKbqJ8Vr-9" target="AgQzvdhxPgLLRKbqJ8Vr-44" edge="1">
          <mxGeometry width="50" height="50" relative="1" as="geometry">
            <mxPoint x="740" y="400.98" as="sourcePoint" />
            <mxPoint x="801.46" y="402.98" as="targetPoint" />
          </mxGeometry>
        </mxCell>
        <mxCell id="AgQzvdhxPgLLRKbqJ8Vr-52" value="" style="endArrow=classic;html=1;rounded=0;entryX=0.976;entryY=0.69;entryDx=0;entryDy=0;entryPerimeter=0;" parent="1" target="AgQzvdhxPgLLRKbqJ8Vr-9" edge="1">
          <mxGeometry width="50" height="50" relative="1" as="geometry">
            <mxPoint x="790" y="420" as="sourcePoint" />
            <mxPoint x="829" y="399.98" as="targetPoint" />
          </mxGeometry>
        </mxCell>
        <mxCell id="AgQzvdhxPgLLRKbqJ8Vr-53" value="" style="endArrow=classic;html=1;rounded=0;entryX=0.443;entryY=-0.017;entryDx=0;entryDy=0;entryPerimeter=0;exitX=0.5;exitY=1;exitDx=0;exitDy=0;" parent="1" source="AgQzvdhxPgLLRKbqJ8Vr-9" target="AgQzvdhxPgLLRKbqJ8Vr-8" edge="1">
          <mxGeometry width="50" height="50" relative="1" as="geometry">
            <mxPoint x="828" y="421.98" as="sourcePoint" />
            <mxPoint x="760" y="418.98" as="targetPoint" />
          </mxGeometry>
        </mxCell>
        <mxCell id="AgQzvdhxPgLLRKbqJ8Vr-54" value="" style="endArrow=classic;html=1;rounded=0;exitX=0.406;exitY=1.017;exitDx=0;exitDy=0;exitPerimeter=0;" parent="1" source="AgQzvdhxPgLLRKbqJ8Vr-8" edge="1">
          <mxGeometry width="50" height="50" relative="1" as="geometry">
            <mxPoint x="676" y="438.98" as="sourcePoint" />
            <mxPoint x="670" y="538.98" as="targetPoint" />
          </mxGeometry>
        </mxCell>
        <mxCell id="AgQzvdhxPgLLRKbqJ8Vr-57" value="" style="endArrow=classic;html=1;rounded=0;exitX=1.005;exitY=0.33;exitDx=0;exitDy=0;exitPerimeter=0;entryX=0;entryY=0.25;entryDx=0;entryDy=0;fillColor=#e51400;strokeColor=#B20000;strokeWidth=2;" parent="1" source="AgQzvdhxPgLLRKbqJ8Vr-5" target="AgQzvdhxPgLLRKbqJ8Vr-15" edge="1">
          <mxGeometry relative="1" as="geometry">
            <mxPoint x="480" y="270" as="sourcePoint" />
            <mxPoint x="580" y="270" as="targetPoint" />
          </mxGeometry>
        </mxCell>
        <mxCell id="AgQzvdhxPgLLRKbqJ8Vr-58" value="Email" style="edgeLabel;resizable=0;html=1;;align=center;verticalAlign=middle;" parent="AgQzvdhxPgLLRKbqJ8Vr-57" connectable="0" vertex="1">
          <mxGeometry relative="1" as="geometry" />
        </mxCell>
        <mxCell id="AgQzvdhxPgLLRKbqJ8Vr-61" value="" style="endArrow=classic;html=1;rounded=0;entryX=0.25;entryY=1;entryDx=0;entryDy=0;exitX=0;exitY=0.5;exitDx=0;exitDy=0;strokeWidth=2;fillColor=#e51400;strokeColor=#B20000;" parent="1" source="AgQzvdhxPgLLRKbqJ8Vr-7" target="AgQzvdhxPgLLRKbqJ8Vr-15" edge="1">
          <mxGeometry relative="1" as="geometry">
            <mxPoint x="190" y="318.98" as="sourcePoint" />
            <mxPoint x="673" y="260" as="targetPoint" />
            <Array as="points">
              <mxPoint x="580" y="410" />
            </Array>
          </mxGeometry>
        </mxCell>
        <mxCell id="AgQzvdhxPgLLRKbqJ8Vr-62" value="Email" style="edgeLabel;resizable=0;html=1;;align=center;verticalAlign=middle;" parent="AgQzvdhxPgLLRKbqJ8Vr-61" connectable="0" vertex="1">
          <mxGeometry relative="1" as="geometry">
            <mxPoint x="36" y="-88" as="offset" />
          </mxGeometry>
        </mxCell>
        <mxCell id="AgQzvdhxPgLLRKbqJ8Vr-63" value="" style="endArrow=classic;html=1;rounded=0;exitX=0.5;exitY=0;exitDx=0;exitDy=0;entryX=0.42;entryY=0.017;entryDx=0;entryDy=0;fillColor=#e51400;strokeColor=#B20000;strokeWidth=2;entryPerimeter=0;" parent="1" source="AgQzvdhxPgLLRKbqJ8Vr-23" target="AgQzvdhxPgLLRKbqJ8Vr-15" edge="1">
          <mxGeometry relative="1" as="geometry">
            <mxPoint x="530" y="190" as="sourcePoint" />
            <mxPoint x="702" y="251" as="targetPoint" />
            <Array as="points">
              <mxPoint x="270" y="170" />
              <mxPoint x="520" y="170" />
            </Array>
          </mxGeometry>
        </mxCell>
        <mxCell id="AgQzvdhxPgLLRKbqJ8Vr-64" value="Email" style="edgeLabel;resizable=0;html=1;;align=center;verticalAlign=middle;" parent="AgQzvdhxPgLLRKbqJ8Vr-63" connectable="0" vertex="1">
          <mxGeometry relative="1" as="geometry">
            <mxPoint x="140" y="10" as="offset" />
          </mxGeometry>
        </mxCell>
        <mxCell id="AgQzvdhxPgLLRKbqJ8Vr-65" value="" style="endArrow=classic;html=1;rounded=0;exitX=0.5;exitY=1;exitDx=0;exitDy=0;" parent="1" edge="1">
          <mxGeometry width="50" height="50" relative="1" as="geometry">
            <mxPoint x="593" y="109.71000000000001" as="sourcePoint" />
            <mxPoint x="621" y="110.21000000000001" as="targetPoint" />
          </mxGeometry>
        </mxCell>
        <mxCell id="AgQzvdhxPgLLRKbqJ8Vr-66" value="= Echange de données" style="text;html=1;align=center;verticalAlign=middle;whiteSpace=wrap;rounded=0;" parent="1" vertex="1">
          <mxGeometry x="630" y="95" width="130" height="30" as="geometry" />
        </mxCell>
        <mxCell id="AgQzvdhxPgLLRKbqJ8Vr-67" value="" style="endArrow=classic;html=1;rounded=0;exitX=1.005;exitY=0.33;exitDx=0;exitDy=0;exitPerimeter=0;fillColor=#e51400;strokeColor=#B20000;strokeWidth=2;" parent="1" edge="1">
          <mxGeometry relative="1" as="geometry">
            <mxPoint x="590" y="134.5" as="sourcePoint" />
            <mxPoint x="630" y="135" as="targetPoint" />
          </mxGeometry>
        </mxCell>
        <mxCell id="AgQzvdhxPgLLRKbqJ8Vr-68" value="Email" style="edgeLabel;resizable=0;html=1;;align=center;verticalAlign=middle;" parent="AgQzvdhxPgLLRKbqJ8Vr-67" connectable="0" vertex="1">
          <mxGeometry relative="1" as="geometry" />
        </mxCell>
        <mxCell id="AgQzvdhxPgLLRKbqJ8Vr-69" value="= Envoi d&#39;Email d&#39;alerte" style="text;html=1;align=center;verticalAlign=middle;whiteSpace=wrap;rounded=0;" parent="1" vertex="1">
          <mxGeometry x="630" y="120" width="130" height="30" as="geometry" />
        </mxCell>
      </root>
    </mxGraphModel>
  </diagram>
  <diagram id="8dtfdFIQgifhC6Urtf7v" name="Page-2">
    <mxGraphModel dx="1426" dy="743" grid="1" gridSize="10" guides="1" tooltips="1" connect="1" arrows="1" fold="1" page="1" pageScale="1" pageWidth="827" pageHeight="1169" math="0" shadow="0">
      <root>
        <mxCell id="0" />
        <mxCell id="1" parent="0" />
        <mxCell id="GoZ-HH2ll52qFwHpvoDU-53" value="" style="rounded=1;whiteSpace=wrap;html=1;fillColor=#cce5ff;strokeColor=#36393d;" parent="1" vertex="1">
          <mxGeometry x="30" y="220" width="730" height="460" as="geometry" />
        </mxCell>
        <mxCell id="GoZ-HH2ll52qFwHpvoDU-54" value="" style="rounded=1;whiteSpace=wrap;html=1;shadow=0;fillColor=#f8cecc;strokeColor=#b85450;" parent="1" vertex="1">
          <mxGeometry x="281" y="370" width="250" height="80" as="geometry" />
        </mxCell>
        <mxCell id="GoZ-HH2ll52qFwHpvoDU-55" value="Postgres_external" style="rounded=0;whiteSpace=wrap;html=1;" parent="1" vertex="1">
          <mxGeometry x="290" y="380" width="110" height="60" as="geometry" />
        </mxCell>
        <mxCell id="GoZ-HH2ll52qFwHpvoDU-56" value="Postgres_admin" style="rounded=0;whiteSpace=wrap;html=1;" parent="1" vertex="1">
          <mxGeometry x="421" y="380" width="100" height="60" as="geometry" />
        </mxCell>
        <mxCell id="GoZ-HH2ll52qFwHpvoDU-57" value="" style="rounded=1;whiteSpace=wrap;html=1;shadow=0;fillColor=#f8cecc;strokeColor=#b85450;" parent="1" vertex="1">
          <mxGeometry x="285" y="250" width="120" height="80" as="geometry" />
        </mxCell>
        <mxCell id="GoZ-HH2ll52qFwHpvoDU-58" value="Ingestion" style="rounded=0;whiteSpace=wrap;html=1;" parent="1" vertex="1">
          <mxGeometry x="295" y="260" width="100" height="60" as="geometry" />
        </mxCell>
        <mxCell id="GoZ-HH2ll52qFwHpvoDU-59" value="" style="rounded=1;whiteSpace=wrap;html=1;shadow=0;fillColor=#f8cecc;strokeColor=#b85450;" parent="1" vertex="1">
          <mxGeometry x="581" y="428.98" width="140" height="240" as="geometry" />
        </mxCell>
        <mxCell id="GoZ-HH2ll52qFwHpvoDU-60" value="Grafana" style="rounded=0;whiteSpace=wrap;html=1;" parent="1" vertex="1">
          <mxGeometry x="595" y="598.98" width="106" height="60" as="geometry" />
        </mxCell>
        <mxCell id="GoZ-HH2ll52qFwHpvoDU-61" value="Prometheus" style="rounded=0;whiteSpace=wrap;html=1;" parent="1" vertex="1">
          <mxGeometry x="598" y="518.98" width="106" height="60" as="geometry" />
        </mxCell>
        <mxCell id="GoZ-HH2ll52qFwHpvoDU-62" value="Docker_exporter" style="rounded=0;whiteSpace=wrap;html=1;" parent="1" vertex="1">
          <mxGeometry x="598" y="438.98" width="106" height="60" as="geometry" />
        </mxCell>
        <mxCell id="GoZ-HH2ll52qFwHpvoDU-63" value="" style="rounded=1;whiteSpace=wrap;html=1;shadow=0;fillColor=#f8cecc;strokeColor=#b85450;" parent="1" vertex="1">
          <mxGeometry x="45" y="488.98" width="250" height="170" as="geometry" />
        </mxCell>
        <mxCell id="GoZ-HH2ll52qFwHpvoDU-64" value="Spark_worker_2" style="rounded=0;whiteSpace=wrap;html=1;" parent="1" vertex="1">
          <mxGeometry x="179" y="585" width="106" height="60" as="geometry" />
        </mxCell>
        <mxCell id="GoZ-HH2ll52qFwHpvoDU-65" value="Spark_worker_1" style="rounded=0;whiteSpace=wrap;html=1;" parent="1" vertex="1">
          <mxGeometry x="59" y="585" width="106" height="60" as="geometry" />
        </mxCell>
        <mxCell id="GoZ-HH2ll52qFwHpvoDU-66" value="Spark_master" style="rounded=0;whiteSpace=wrap;html=1;" parent="1" vertex="1">
          <mxGeometry x="121" y="500" width="106" height="60" as="geometry" />
        </mxCell>
        <mxCell id="GoZ-HH2ll52qFwHpvoDU-67" value="" style="rounded=1;whiteSpace=wrap;html=1;shadow=0;fillColor=#f8cecc;strokeColor=#b85450;" parent="1" vertex="1">
          <mxGeometry x="581" y="290" width="120" height="80" as="geometry" />
        </mxCell>
        <mxCell id="GoZ-HH2ll52qFwHpvoDU-68" value="Mailhog" style="rounded=0;whiteSpace=wrap;html=1;" parent="1" vertex="1">
          <mxGeometry x="591" y="300" width="100" height="60" as="geometry" />
        </mxCell>
        <mxCell id="GoZ-HH2ll52qFwHpvoDU-69" value="" style="rounded=1;whiteSpace=wrap;html=1;shadow=0;fillColor=#f8cecc;strokeColor=#b85450;" parent="1" vertex="1">
          <mxGeometry x="70" y="320" width="160" height="120" as="geometry" />
        </mxCell>
        <mxCell id="GoZ-HH2ll52qFwHpvoDU-70" value="Airflow&lt;br&gt;(9 containeurs)" style="rounded=0;whiteSpace=wrap;html=1;" parent="1" vertex="1">
          <mxGeometry x="97" y="350" width="106" height="60" as="geometry" />
        </mxCell>
        <mxCell id="GoZ-HH2ll52qFwHpvoDU-71" value="" style="endArrow=classic;html=1;rounded=0;entryX=0.5;entryY=0;entryDx=0;entryDy=0;" parent="1" source="GoZ-HH2ll52qFwHpvoDU-58" target="GoZ-HH2ll52qFwHpvoDU-55" edge="1">
          <mxGeometry width="50" height="50" relative="1" as="geometry">
            <mxPoint x="401" y="490" as="sourcePoint" />
            <mxPoint x="451" y="440" as="targetPoint" />
          </mxGeometry>
        </mxCell>
        <mxCell id="GoZ-HH2ll52qFwHpvoDU-72" value="Yfinance" style="ellipse;whiteSpace=wrap;html=1;" parent="1" vertex="1">
          <mxGeometry x="285" y="145" width="80" height="50" as="geometry" />
        </mxCell>
        <mxCell id="GoZ-HH2ll52qFwHpvoDU-73" value="" style="endArrow=classic;html=1;rounded=0;exitX=0.5;exitY=1;exitDx=0;exitDy=0;entryX=0.29;entryY=0;entryDx=0;entryDy=0;entryPerimeter=0;" parent="1" source="GoZ-HH2ll52qFwHpvoDU-72" target="GoZ-HH2ll52qFwHpvoDU-58" edge="1">
          <mxGeometry width="50" height="50" relative="1" as="geometry">
            <mxPoint x="421" y="360" as="sourcePoint" />
            <mxPoint x="471" y="310" as="targetPoint" />
          </mxGeometry>
        </mxCell>
        <mxCell id="GoZ-HH2ll52qFwHpvoDU-74" value="" style="endArrow=classic;html=1;rounded=0;exitX=1;exitY=0.5;exitDx=0;exitDy=0;entryX=0.009;entryY=0.117;entryDx=0;entryDy=0;entryPerimeter=0;" parent="1" source="GoZ-HH2ll52qFwHpvoDU-70" target="GoZ-HH2ll52qFwHpvoDU-55" edge="1">
          <mxGeometry width="50" height="50" relative="1" as="geometry">
            <mxPoint x="331" y="440" as="sourcePoint" />
            <mxPoint x="381" y="390" as="targetPoint" />
          </mxGeometry>
        </mxCell>
        <mxCell id="GoZ-HH2ll52qFwHpvoDU-75" value="" style="endArrow=classic;html=1;rounded=0;exitX=0;exitY=0.5;exitDx=0;exitDy=0;entryX=0.998;entryY=0.861;entryDx=0;entryDy=0;entryPerimeter=0;" parent="1" source="GoZ-HH2ll52qFwHpvoDU-55" target="GoZ-HH2ll52qFwHpvoDU-70" edge="1">
          <mxGeometry width="50" height="50" relative="1" as="geometry">
            <mxPoint x="241" y="420" as="sourcePoint" />
            <mxPoint x="291" y="370" as="targetPoint" />
          </mxGeometry>
        </mxCell>
        <mxCell id="GoZ-HH2ll52qFwHpvoDU-76" value="" style="endArrow=classic;html=1;rounded=0;exitX=0.25;exitY=1;exitDx=0;exitDy=0;entryX=0.117;entryY=0.029;entryDx=0;entryDy=0;entryPerimeter=0;" parent="1" target="GoZ-HH2ll52qFwHpvoDU-66" edge="1">
          <mxGeometry width="50" height="50" relative="1" as="geometry">
            <mxPoint x="132.5" y="409.9999999999999" as="sourcePoint" />
            <mxPoint x="280" y="440" as="targetPoint" />
          </mxGeometry>
        </mxCell>
        <mxCell id="GoZ-HH2ll52qFwHpvoDU-77" value="" style="endArrow=classic;html=1;rounded=0;exitX=0.5;exitY=0;exitDx=0;exitDy=0;entryX=0.639;entryY=1;entryDx=0;entryDy=0;entryPerimeter=0;" parent="1" source="GoZ-HH2ll52qFwHpvoDU-66" edge="1">
          <mxGeometry width="50" height="50" relative="1" as="geometry">
            <mxPoint x="120" y="440" as="sourcePoint" />
            <mxPoint x="173.73400000000015" y="409.9999999999999" as="targetPoint" />
          </mxGeometry>
        </mxCell>
        <mxCell id="GoZ-HH2ll52qFwHpvoDU-78" value="" style="endArrow=classic;html=1;rounded=0;exitX=0;exitY=1;exitDx=0;exitDy=0;entryX=0.25;entryY=0;entryDx=0;entryDy=0;" parent="1" source="GoZ-HH2ll52qFwHpvoDU-66" target="GoZ-HH2ll52qFwHpvoDU-65" edge="1">
          <mxGeometry width="50" height="50" relative="1" as="geometry">
            <mxPoint x="230" y="490" as="sourcePoint" />
            <mxPoint x="280" y="440" as="targetPoint" />
          </mxGeometry>
        </mxCell>
        <mxCell id="GoZ-HH2ll52qFwHpvoDU-79" value="" style="endArrow=classic;html=1;rounded=0;exitX=0.571;exitY=0.069;exitDx=0;exitDy=0;entryX=0.25;entryY=1;entryDx=0;entryDy=0;exitPerimeter=0;" parent="1" source="GoZ-HH2ll52qFwHpvoDU-65" target="GoZ-HH2ll52qFwHpvoDU-66" edge="1">
          <mxGeometry width="50" height="50" relative="1" as="geometry">
            <mxPoint x="135" y="570" as="sourcePoint" />
            <mxPoint x="100" y="595" as="targetPoint" />
          </mxGeometry>
        </mxCell>
        <mxCell id="GoZ-HH2ll52qFwHpvoDU-80" value="" style="endArrow=classic;html=1;rounded=0;exitX=0.75;exitY=0;exitDx=0;exitDy=0;entryX=0.953;entryY=1.028;entryDx=0;entryDy=0;entryPerimeter=0;" parent="1" source="GoZ-HH2ll52qFwHpvoDU-64" target="GoZ-HH2ll52qFwHpvoDU-66" edge="1">
          <mxGeometry width="50" height="50" relative="1" as="geometry">
            <mxPoint x="170" y="609" as="sourcePoint" />
            <mxPoint x="198" y="580" as="targetPoint" />
          </mxGeometry>
        </mxCell>
        <mxCell id="GoZ-HH2ll52qFwHpvoDU-81" value="" style="endArrow=classic;html=1;rounded=0;exitX=0.56;exitY=1;exitDx=0;exitDy=0;entryX=0.25;entryY=0;entryDx=0;entryDy=0;exitPerimeter=0;" parent="1" source="GoZ-HH2ll52qFwHpvoDU-66" target="GoZ-HH2ll52qFwHpvoDU-64" edge="1">
          <mxGeometry width="50" height="50" relative="1" as="geometry">
            <mxPoint x="267" y="593" as="sourcePoint" />
            <mxPoint x="230" y="570" as="targetPoint" />
          </mxGeometry>
        </mxCell>
        <mxCell id="GoZ-HH2ll52qFwHpvoDU-82" value="" style="endArrow=classic;html=1;rounded=0;exitX=1;exitY=0.25;exitDx=0;exitDy=0;entryX=0;entryY=0.313;entryDx=0;entryDy=0;entryPerimeter=0;" parent="1" source="GoZ-HH2ll52qFwHpvoDU-55" target="GoZ-HH2ll52qFwHpvoDU-56" edge="1">
          <mxGeometry width="50" height="50" relative="1" as="geometry">
            <mxPoint x="421" y="420" as="sourcePoint" />
            <mxPoint x="471" y="370" as="targetPoint" />
          </mxGeometry>
        </mxCell>
        <mxCell id="GoZ-HH2ll52qFwHpvoDU-83" value="" style="endArrow=classic;html=1;rounded=0;exitX=0.012;exitY=0.607;exitDx=0;exitDy=0;entryX=0.995;entryY=0.62;entryDx=0;entryDy=0;entryPerimeter=0;exitPerimeter=0;" parent="1" source="GoZ-HH2ll52qFwHpvoDU-56" target="GoZ-HH2ll52qFwHpvoDU-55" edge="1">
          <mxGeometry width="50" height="50" relative="1" as="geometry">
            <mxPoint x="401" y="390" as="sourcePoint" />
            <mxPoint x="422" y="394" as="targetPoint" />
          </mxGeometry>
        </mxCell>
        <mxCell id="GoZ-HH2ll52qFwHpvoDU-84" value="" style="rounded=1;whiteSpace=wrap;html=1;fillColor=#cce5ff;strokeColor=#36393d;" parent="1" vertex="1">
          <mxGeometry x="400" y="135" width="40" height="20" as="geometry" />
        </mxCell>
        <mxCell id="GoZ-HH2ll52qFwHpvoDU-85" value="= Docker / Serveur" style="text;html=1;align=center;verticalAlign=middle;whiteSpace=wrap;rounded=0;" parent="1" vertex="1">
          <mxGeometry x="440" y="130" width="110" height="30" as="geometry" />
        </mxCell>
        <mxCell id="GoZ-HH2ll52qFwHpvoDU-86" value="" style="rounded=1;whiteSpace=wrap;html=1;fillColor=#f8cecc;strokeColor=#b85450;" parent="1" vertex="1">
          <mxGeometry x="400" y="160" width="40" height="20" as="geometry" />
        </mxCell>
        <mxCell id="GoZ-HH2ll52qFwHpvoDU-87" value="= Docker Compose" style="text;html=1;align=center;verticalAlign=middle;whiteSpace=wrap;rounded=0;" parent="1" vertex="1">
          <mxGeometry x="442" y="155" width="110" height="30" as="geometry" />
        </mxCell>
        <mxCell id="GoZ-HH2ll52qFwHpvoDU-88" value="" style="rounded=0;whiteSpace=wrap;html=1;" parent="1" vertex="1">
          <mxGeometry x="404" y="185" width="32" height="20" as="geometry" />
        </mxCell>
        <mxCell id="GoZ-HH2ll52qFwHpvoDU-89" value="&amp;nbsp;= Containeur" style="text;html=1;align=center;verticalAlign=middle;whiteSpace=wrap;rounded=0;" parent="1" vertex="1">
          <mxGeometry x="442" y="180" width="80" height="30" as="geometry" />
        </mxCell>
        <mxCell id="GoZ-HH2ll52qFwHpvoDU-90" value="" style="endArrow=classic;html=1;rounded=0;entryX=0.995;entryY=0.518;entryDx=0;entryDy=0;entryPerimeter=0;exitX=0.987;exitY=0.348;exitDx=0;exitDy=0;exitPerimeter=0;" parent="1" source="GoZ-HH2ll52qFwHpvoDU-62" target="GoZ-HH2ll52qFwHpvoDU-53" edge="1">
          <mxGeometry width="50" height="50" relative="1" as="geometry">
            <mxPoint x="710" y="460.98" as="sourcePoint" />
            <mxPoint x="771.46" y="462.98" as="targetPoint" />
          </mxGeometry>
        </mxCell>
        <mxCell id="GoZ-HH2ll52qFwHpvoDU-91" value="" style="endArrow=classic;html=1;rounded=0;entryX=0.976;entryY=0.69;entryDx=0;entryDy=0;entryPerimeter=0;" parent="1" target="GoZ-HH2ll52qFwHpvoDU-62" edge="1">
          <mxGeometry width="50" height="50" relative="1" as="geometry">
            <mxPoint x="760" y="480" as="sourcePoint" />
            <mxPoint x="799" y="459.98" as="targetPoint" />
          </mxGeometry>
        </mxCell>
        <mxCell id="GoZ-HH2ll52qFwHpvoDU-92" value="" style="endArrow=classic;html=1;rounded=0;entryX=0.443;entryY=-0.017;entryDx=0;entryDy=0;entryPerimeter=0;exitX=0.5;exitY=1;exitDx=0;exitDy=0;" parent="1" source="GoZ-HH2ll52qFwHpvoDU-62" target="GoZ-HH2ll52qFwHpvoDU-61" edge="1">
          <mxGeometry width="50" height="50" relative="1" as="geometry">
            <mxPoint x="798" y="481.98" as="sourcePoint" />
            <mxPoint x="730" y="478.98" as="targetPoint" />
          </mxGeometry>
        </mxCell>
        <mxCell id="GoZ-HH2ll52qFwHpvoDU-93" value="" style="endArrow=classic;html=1;rounded=0;exitX=0.406;exitY=1.017;exitDx=0;exitDy=0;exitPerimeter=0;" parent="1" source="GoZ-HH2ll52qFwHpvoDU-61" edge="1">
          <mxGeometry width="50" height="50" relative="1" as="geometry">
            <mxPoint x="646" y="498.98" as="sourcePoint" />
            <mxPoint x="640" y="598.98" as="targetPoint" />
          </mxGeometry>
        </mxCell>
        <mxCell id="GoZ-HH2ll52qFwHpvoDU-94" value="" style="endArrow=classic;html=1;rounded=0;exitX=1.005;exitY=0.33;exitDx=0;exitDy=0;exitPerimeter=0;entryX=0;entryY=0.25;entryDx=0;entryDy=0;fillColor=#e51400;strokeColor=#B20000;strokeWidth=2;" parent="1" source="GoZ-HH2ll52qFwHpvoDU-58" target="GoZ-HH2ll52qFwHpvoDU-68" edge="1">
          <mxGeometry relative="1" as="geometry">
            <mxPoint x="450" y="330" as="sourcePoint" />
            <mxPoint x="550" y="330" as="targetPoint" />
          </mxGeometry>
        </mxCell>
        <mxCell id="GoZ-HH2ll52qFwHpvoDU-95" value="Email" style="edgeLabel;resizable=0;html=1;;align=center;verticalAlign=middle;" parent="GoZ-HH2ll52qFwHpvoDU-94" connectable="0" vertex="1">
          <mxGeometry relative="1" as="geometry" />
        </mxCell>
        <mxCell id="GoZ-HH2ll52qFwHpvoDU-96" value="" style="endArrow=classic;html=1;rounded=0;entryX=0.25;entryY=1;entryDx=0;entryDy=0;exitX=0;exitY=0.5;exitDx=0;exitDy=0;strokeWidth=2;fillColor=#e51400;strokeColor=#B20000;" parent="1" source="GoZ-HH2ll52qFwHpvoDU-60" target="GoZ-HH2ll52qFwHpvoDU-68" edge="1">
          <mxGeometry relative="1" as="geometry">
            <mxPoint x="160" y="378.98" as="sourcePoint" />
            <mxPoint x="643" y="320" as="targetPoint" />
            <Array as="points">
              <mxPoint x="550" y="470" />
            </Array>
          </mxGeometry>
        </mxCell>
        <mxCell id="GoZ-HH2ll52qFwHpvoDU-97" value="Email" style="edgeLabel;resizable=0;html=1;;align=center;verticalAlign=middle;" parent="GoZ-HH2ll52qFwHpvoDU-96" connectable="0" vertex="1">
          <mxGeometry relative="1" as="geometry">
            <mxPoint x="36" y="-88" as="offset" />
          </mxGeometry>
        </mxCell>
        <mxCell id="GoZ-HH2ll52qFwHpvoDU-98" value="" style="endArrow=classic;html=1;rounded=0;exitX=0.5;exitY=0;exitDx=0;exitDy=0;entryX=0.42;entryY=0.017;entryDx=0;entryDy=0;fillColor=#e51400;strokeColor=#B20000;strokeWidth=10;entryPerimeter=0;" parent="1" source="GoZ-HH2ll52qFwHpvoDU-70" target="GoZ-HH2ll52qFwHpvoDU-68" edge="1">
          <mxGeometry relative="1" as="geometry">
            <mxPoint x="500" y="250" as="sourcePoint" />
            <mxPoint x="672" y="311" as="targetPoint" />
            <Array as="points">
              <mxPoint x="240" y="230" />
              <mxPoint x="490" y="230" />
            </Array>
          </mxGeometry>
        </mxCell>
        <mxCell id="GoZ-HH2ll52qFwHpvoDU-99" value="Email" style="edgeLabel;resizable=0;html=1;;align=center;verticalAlign=middle;" parent="GoZ-HH2ll52qFwHpvoDU-98" connectable="0" vertex="1">
          <mxGeometry relative="1" as="geometry">
            <mxPoint x="140" y="10" as="offset" />
          </mxGeometry>
        </mxCell>
        <mxCell id="GoZ-HH2ll52qFwHpvoDU-100" value="" style="endArrow=classic;html=1;rounded=0;exitX=0.5;exitY=1;exitDx=0;exitDy=0;" parent="1" edge="1">
          <mxGeometry width="50" height="50" relative="1" as="geometry">
            <mxPoint x="563" y="169.71000000000004" as="sourcePoint" />
            <mxPoint x="591" y="170.21000000000004" as="targetPoint" />
          </mxGeometry>
        </mxCell>
        <mxCell id="GoZ-HH2ll52qFwHpvoDU-101" value="= Echange de données" style="text;html=1;align=center;verticalAlign=middle;whiteSpace=wrap;rounded=0;" parent="1" vertex="1">
          <mxGeometry x="600" y="155" width="130" height="30" as="geometry" />
        </mxCell>
        <mxCell id="GoZ-HH2ll52qFwHpvoDU-102" value="" style="endArrow=classic;html=1;rounded=0;exitX=1.005;exitY=0.33;exitDx=0;exitDy=0;exitPerimeter=0;fillColor=#e51400;strokeColor=#B20000;strokeWidth=2;" parent="1" edge="1">
          <mxGeometry relative="1" as="geometry">
            <mxPoint x="560" y="194.5" as="sourcePoint" />
            <mxPoint x="600" y="195" as="targetPoint" />
          </mxGeometry>
        </mxCell>
        <mxCell id="GoZ-HH2ll52qFwHpvoDU-103" value="Email" style="edgeLabel;resizable=0;html=1;;align=center;verticalAlign=middle;" parent="GoZ-HH2ll52qFwHpvoDU-102" connectable="0" vertex="1">
          <mxGeometry relative="1" as="geometry" />
        </mxCell>
        <mxCell id="GoZ-HH2ll52qFwHpvoDU-104" value="= Envoi d&#39;Email d&#39;alerte" style="text;html=1;align=center;verticalAlign=middle;whiteSpace=wrap;rounded=0;" parent="1" vertex="1">
          <mxGeometry x="600" y="180" width="130" height="30" as="geometry" />
        </mxCell>
      </root>
    </mxGraphModel>
  </diagram>
  <diagram id="vUWobOuglzwmX6p2Oumb" name="Page-3">
    <mxGraphModel dx="1426" dy="743" grid="1" gridSize="10" guides="1" tooltips="1" connect="1" arrows="1" fold="1" page="1" pageScale="1" pageWidth="827" pageHeight="1169" math="0" shadow="0">
      <root>
        <mxCell id="0" />
        <mxCell id="1" parent="0" />
        <mxCell id="hDPaUhJNJjhnioEsnit0-1" value="" style="rounded=1;whiteSpace=wrap;html=1;fillColor=#cce5ff;strokeColor=#36393d;" vertex="1" parent="1">
          <mxGeometry x="80" y="360" width="730" height="460" as="geometry" />
        </mxCell>
        <mxCell id="hDPaUhJNJjhnioEsnit0-2" value="" style="rounded=1;whiteSpace=wrap;html=1;shadow=0;fillColor=#f8cecc;strokeColor=#b85450;" vertex="1" parent="1">
          <mxGeometry x="331" y="510" width="250" height="80" as="geometry" />
        </mxCell>
        <mxCell id="hDPaUhJNJjhnioEsnit0-3" value="Postgres_external" style="rounded=0;whiteSpace=wrap;html=1;" vertex="1" parent="1">
          <mxGeometry x="340" y="520" width="110" height="60" as="geometry" />
        </mxCell>
        <mxCell id="hDPaUhJNJjhnioEsnit0-4" value="Postgres_admin" style="rounded=0;whiteSpace=wrap;html=1;" vertex="1" parent="1">
          <mxGeometry x="471" y="520" width="100" height="60" as="geometry" />
        </mxCell>
        <mxCell id="hDPaUhJNJjhnioEsnit0-5" value="" style="rounded=1;whiteSpace=wrap;html=1;shadow=0;fillColor=#f8cecc;strokeColor=#b85450;" vertex="1" parent="1">
          <mxGeometry x="335" y="390" width="120" height="80" as="geometry" />
        </mxCell>
        <mxCell id="hDPaUhJNJjhnioEsnit0-6" value="Ingestion" style="rounded=0;whiteSpace=wrap;html=1;" vertex="1" parent="1">
          <mxGeometry x="345" y="400" width="100" height="60" as="geometry" />
        </mxCell>
        <mxCell id="hDPaUhJNJjhnioEsnit0-7" value="" style="rounded=1;whiteSpace=wrap;html=1;shadow=0;fillColor=#f8cecc;strokeColor=#b85450;" vertex="1" parent="1">
          <mxGeometry x="631" y="568.98" width="140" height="240" as="geometry" />
        </mxCell>
        <mxCell id="hDPaUhJNJjhnioEsnit0-8" value="Grafana" style="rounded=0;whiteSpace=wrap;html=1;" vertex="1" parent="1">
          <mxGeometry x="645" y="738.98" width="106" height="60" as="geometry" />
        </mxCell>
        <mxCell id="hDPaUhJNJjhnioEsnit0-9" value="Prometheus" style="rounded=0;whiteSpace=wrap;html=1;" vertex="1" parent="1">
          <mxGeometry x="648" y="658.98" width="106" height="60" as="geometry" />
        </mxCell>
        <mxCell id="hDPaUhJNJjhnioEsnit0-10" value="Docker_exporter" style="rounded=0;whiteSpace=wrap;html=1;" vertex="1" parent="1">
          <mxGeometry x="648" y="578.98" width="106" height="60" as="geometry" />
        </mxCell>
        <mxCell id="hDPaUhJNJjhnioEsnit0-11" value="" style="rounded=1;whiteSpace=wrap;html=1;shadow=0;fillColor=#f8cecc;strokeColor=#b85450;" vertex="1" parent="1">
          <mxGeometry x="95" y="628.98" width="250" height="170" as="geometry" />
        </mxCell>
        <mxCell id="hDPaUhJNJjhnioEsnit0-12" value="Spark_worker_2" style="rounded=0;whiteSpace=wrap;html=1;" vertex="1" parent="1">
          <mxGeometry x="229" y="725" width="106" height="60" as="geometry" />
        </mxCell>
        <mxCell id="hDPaUhJNJjhnioEsnit0-13" value="Spark_worker_1" style="rounded=0;whiteSpace=wrap;html=1;" vertex="1" parent="1">
          <mxGeometry x="109" y="725" width="106" height="60" as="geometry" />
        </mxCell>
        <mxCell id="hDPaUhJNJjhnioEsnit0-14" value="Spark_master" style="rounded=0;whiteSpace=wrap;html=1;" vertex="1" parent="1">
          <mxGeometry x="171" y="640" width="106" height="60" as="geometry" />
        </mxCell>
        <mxCell id="hDPaUhJNJjhnioEsnit0-15" value="" style="rounded=1;whiteSpace=wrap;html=1;shadow=0;fillColor=#f8cecc;strokeColor=#b85450;" vertex="1" parent="1">
          <mxGeometry x="631" y="430" width="120" height="80" as="geometry" />
        </mxCell>
        <mxCell id="hDPaUhJNJjhnioEsnit0-16" value="Mailhog" style="rounded=0;whiteSpace=wrap;html=1;" vertex="1" parent="1">
          <mxGeometry x="641" y="440" width="100" height="60" as="geometry" />
        </mxCell>
        <mxCell id="hDPaUhJNJjhnioEsnit0-17" value="" style="rounded=1;whiteSpace=wrap;html=1;shadow=0;fillColor=#f8cecc;strokeColor=#b85450;" vertex="1" parent="1">
          <mxGeometry x="120" y="460" width="160" height="120" as="geometry" />
        </mxCell>
        <mxCell id="hDPaUhJNJjhnioEsnit0-18" value="Airflow&lt;br&gt;(9 containeurs)" style="rounded=0;whiteSpace=wrap;html=1;" vertex="1" parent="1">
          <mxGeometry x="147" y="490" width="106" height="60" as="geometry" />
        </mxCell>
        <mxCell id="hDPaUhJNJjhnioEsnit0-19" value="" style="endArrow=classic;html=1;rounded=0;entryX=0.5;entryY=0;entryDx=0;entryDy=0;" edge="1" parent="1" source="hDPaUhJNJjhnioEsnit0-6" target="hDPaUhJNJjhnioEsnit0-3">
          <mxGeometry width="50" height="50" relative="1" as="geometry">
            <mxPoint x="451" y="630" as="sourcePoint" />
            <mxPoint x="501" y="580" as="targetPoint" />
          </mxGeometry>
        </mxCell>
        <mxCell id="hDPaUhJNJjhnioEsnit0-20" value="Yfinance" style="ellipse;whiteSpace=wrap;html=1;" vertex="1" parent="1">
          <mxGeometry x="335" y="285" width="80" height="50" as="geometry" />
        </mxCell>
        <mxCell id="hDPaUhJNJjhnioEsnit0-21" value="" style="endArrow=classic;html=1;rounded=0;exitX=0.5;exitY=1;exitDx=0;exitDy=0;entryX=0.29;entryY=0;entryDx=0;entryDy=0;entryPerimeter=0;" edge="1" parent="1" source="hDPaUhJNJjhnioEsnit0-20" target="hDPaUhJNJjhnioEsnit0-6">
          <mxGeometry width="50" height="50" relative="1" as="geometry">
            <mxPoint x="471" y="500" as="sourcePoint" />
            <mxPoint x="521" y="450" as="targetPoint" />
          </mxGeometry>
        </mxCell>
        <mxCell id="hDPaUhJNJjhnioEsnit0-22" value="" style="endArrow=classic;html=1;rounded=0;exitX=1;exitY=0.5;exitDx=0;exitDy=0;entryX=0.009;entryY=0.117;entryDx=0;entryDy=0;entryPerimeter=0;" edge="1" parent="1" source="hDPaUhJNJjhnioEsnit0-18" target="hDPaUhJNJjhnioEsnit0-3">
          <mxGeometry width="50" height="50" relative="1" as="geometry">
            <mxPoint x="381" y="580" as="sourcePoint" />
            <mxPoint x="431" y="530" as="targetPoint" />
          </mxGeometry>
        </mxCell>
        <mxCell id="hDPaUhJNJjhnioEsnit0-23" value="" style="endArrow=classic;html=1;rounded=0;exitX=0;exitY=0.5;exitDx=0;exitDy=0;entryX=0.998;entryY=0.861;entryDx=0;entryDy=0;entryPerimeter=0;" edge="1" parent="1" source="hDPaUhJNJjhnioEsnit0-3" target="hDPaUhJNJjhnioEsnit0-18">
          <mxGeometry width="50" height="50" relative="1" as="geometry">
            <mxPoint x="291" y="560" as="sourcePoint" />
            <mxPoint x="341" y="510" as="targetPoint" />
          </mxGeometry>
        </mxCell>
        <mxCell id="hDPaUhJNJjhnioEsnit0-24" value="" style="endArrow=classic;html=1;rounded=0;exitX=0.25;exitY=1;exitDx=0;exitDy=0;entryX=0.117;entryY=0.029;entryDx=0;entryDy=0;entryPerimeter=0;" edge="1" parent="1" target="hDPaUhJNJjhnioEsnit0-14">
          <mxGeometry width="50" height="50" relative="1" as="geometry">
            <mxPoint x="182.5" y="549.9999999999999" as="sourcePoint" />
            <mxPoint x="330" y="580" as="targetPoint" />
          </mxGeometry>
        </mxCell>
        <mxCell id="hDPaUhJNJjhnioEsnit0-25" value="" style="endArrow=classic;html=1;rounded=0;exitX=0.5;exitY=0;exitDx=0;exitDy=0;entryX=0.639;entryY=1;entryDx=0;entryDy=0;entryPerimeter=0;" edge="1" parent="1" source="hDPaUhJNJjhnioEsnit0-14">
          <mxGeometry width="50" height="50" relative="1" as="geometry">
            <mxPoint x="170" y="580" as="sourcePoint" />
            <mxPoint x="223.73400000000015" y="549.9999999999999" as="targetPoint" />
          </mxGeometry>
        </mxCell>
        <mxCell id="hDPaUhJNJjhnioEsnit0-26" value="" style="endArrow=classic;html=1;rounded=0;exitX=0;exitY=1;exitDx=0;exitDy=0;entryX=0.25;entryY=0;entryDx=0;entryDy=0;" edge="1" parent="1" source="hDPaUhJNJjhnioEsnit0-14" target="hDPaUhJNJjhnioEsnit0-13">
          <mxGeometry width="50" height="50" relative="1" as="geometry">
            <mxPoint x="280" y="630" as="sourcePoint" />
            <mxPoint x="330" y="580" as="targetPoint" />
          </mxGeometry>
        </mxCell>
        <mxCell id="hDPaUhJNJjhnioEsnit0-27" value="" style="endArrow=classic;html=1;rounded=0;exitX=0.571;exitY=0.069;exitDx=0;exitDy=0;entryX=0.25;entryY=1;entryDx=0;entryDy=0;exitPerimeter=0;" edge="1" parent="1" source="hDPaUhJNJjhnioEsnit0-13" target="hDPaUhJNJjhnioEsnit0-14">
          <mxGeometry width="50" height="50" relative="1" as="geometry">
            <mxPoint x="185" y="710" as="sourcePoint" />
            <mxPoint x="150" y="735" as="targetPoint" />
          </mxGeometry>
        </mxCell>
        <mxCell id="hDPaUhJNJjhnioEsnit0-28" value="" style="endArrow=classic;html=1;rounded=0;exitX=0.75;exitY=0;exitDx=0;exitDy=0;entryX=0.953;entryY=1.028;entryDx=0;entryDy=0;entryPerimeter=0;" edge="1" parent="1" source="hDPaUhJNJjhnioEsnit0-12" target="hDPaUhJNJjhnioEsnit0-14">
          <mxGeometry width="50" height="50" relative="1" as="geometry">
            <mxPoint x="220" y="749" as="sourcePoint" />
            <mxPoint x="248" y="720" as="targetPoint" />
          </mxGeometry>
        </mxCell>
        <mxCell id="hDPaUhJNJjhnioEsnit0-29" value="" style="endArrow=classic;html=1;rounded=0;exitX=0.56;exitY=1;exitDx=0;exitDy=0;entryX=0.25;entryY=0;entryDx=0;entryDy=0;exitPerimeter=0;" edge="1" parent="1" source="hDPaUhJNJjhnioEsnit0-14" target="hDPaUhJNJjhnioEsnit0-12">
          <mxGeometry width="50" height="50" relative="1" as="geometry">
            <mxPoint x="317" y="733" as="sourcePoint" />
            <mxPoint x="280" y="710" as="targetPoint" />
          </mxGeometry>
        </mxCell>
        <mxCell id="hDPaUhJNJjhnioEsnit0-30" value="" style="endArrow=classic;html=1;rounded=0;exitX=1;exitY=0.25;exitDx=0;exitDy=0;entryX=0;entryY=0.313;entryDx=0;entryDy=0;entryPerimeter=0;" edge="1" parent="1" source="hDPaUhJNJjhnioEsnit0-3" target="hDPaUhJNJjhnioEsnit0-4">
          <mxGeometry width="50" height="50" relative="1" as="geometry">
            <mxPoint x="471" y="560" as="sourcePoint" />
            <mxPoint x="521" y="510" as="targetPoint" />
          </mxGeometry>
        </mxCell>
        <mxCell id="hDPaUhJNJjhnioEsnit0-31" value="" style="endArrow=classic;html=1;rounded=0;exitX=0.012;exitY=0.607;exitDx=0;exitDy=0;entryX=0.995;entryY=0.62;entryDx=0;entryDy=0;entryPerimeter=0;exitPerimeter=0;" edge="1" parent="1" source="hDPaUhJNJjhnioEsnit0-4" target="hDPaUhJNJjhnioEsnit0-3">
          <mxGeometry width="50" height="50" relative="1" as="geometry">
            <mxPoint x="451" y="530" as="sourcePoint" />
            <mxPoint x="472" y="534" as="targetPoint" />
          </mxGeometry>
        </mxCell>
        <mxCell id="hDPaUhJNJjhnioEsnit0-32" value="" style="rounded=1;whiteSpace=wrap;html=1;fillColor=#cce5ff;strokeColor=#36393d;" vertex="1" parent="1">
          <mxGeometry x="450" y="275" width="40" height="20" as="geometry" />
        </mxCell>
        <mxCell id="hDPaUhJNJjhnioEsnit0-33" value="= Docker / Serveur" style="text;html=1;align=center;verticalAlign=middle;whiteSpace=wrap;rounded=0;" vertex="1" parent="1">
          <mxGeometry x="490" y="270" width="110" height="30" as="geometry" />
        </mxCell>
        <mxCell id="hDPaUhJNJjhnioEsnit0-34" value="" style="rounded=1;whiteSpace=wrap;html=1;fillColor=#f8cecc;strokeColor=#b85450;" vertex="1" parent="1">
          <mxGeometry x="450" y="300" width="40" height="20" as="geometry" />
        </mxCell>
        <mxCell id="hDPaUhJNJjhnioEsnit0-35" value="= Docker Compose" style="text;html=1;align=center;verticalAlign=middle;whiteSpace=wrap;rounded=0;" vertex="1" parent="1">
          <mxGeometry x="492" y="295" width="110" height="30" as="geometry" />
        </mxCell>
        <mxCell id="hDPaUhJNJjhnioEsnit0-36" value="" style="rounded=0;whiteSpace=wrap;html=1;" vertex="1" parent="1">
          <mxGeometry x="454" y="325" width="32" height="20" as="geometry" />
        </mxCell>
        <mxCell id="hDPaUhJNJjhnioEsnit0-37" value="&amp;nbsp;= Containeur" style="text;html=1;align=center;verticalAlign=middle;whiteSpace=wrap;rounded=0;" vertex="1" parent="1">
          <mxGeometry x="492" y="320" width="80" height="30" as="geometry" />
        </mxCell>
        <mxCell id="hDPaUhJNJjhnioEsnit0-38" value="" style="endArrow=classic;html=1;rounded=0;entryX=0.995;entryY=0.518;entryDx=0;entryDy=0;entryPerimeter=0;exitX=0.987;exitY=0.348;exitDx=0;exitDy=0;exitPerimeter=0;" edge="1" parent="1" source="hDPaUhJNJjhnioEsnit0-10" target="hDPaUhJNJjhnioEsnit0-1">
          <mxGeometry width="50" height="50" relative="1" as="geometry">
            <mxPoint x="760" y="600.98" as="sourcePoint" />
            <mxPoint x="821.46" y="602.98" as="targetPoint" />
          </mxGeometry>
        </mxCell>
        <mxCell id="hDPaUhJNJjhnioEsnit0-39" value="" style="endArrow=classic;html=1;rounded=0;entryX=0.976;entryY=0.69;entryDx=0;entryDy=0;entryPerimeter=0;" edge="1" parent="1" target="hDPaUhJNJjhnioEsnit0-10">
          <mxGeometry width="50" height="50" relative="1" as="geometry">
            <mxPoint x="810" y="620" as="sourcePoint" />
            <mxPoint x="849" y="599.98" as="targetPoint" />
          </mxGeometry>
        </mxCell>
        <mxCell id="hDPaUhJNJjhnioEsnit0-40" value="" style="endArrow=classic;html=1;rounded=0;entryX=0.443;entryY=-0.017;entryDx=0;entryDy=0;entryPerimeter=0;exitX=0.5;exitY=1;exitDx=0;exitDy=0;" edge="1" parent="1" source="hDPaUhJNJjhnioEsnit0-10" target="hDPaUhJNJjhnioEsnit0-9">
          <mxGeometry width="50" height="50" relative="1" as="geometry">
            <mxPoint x="848" y="621.98" as="sourcePoint" />
            <mxPoint x="780" y="618.98" as="targetPoint" />
          </mxGeometry>
        </mxCell>
        <mxCell id="hDPaUhJNJjhnioEsnit0-41" value="" style="endArrow=classic;html=1;rounded=0;exitX=0.406;exitY=1.017;exitDx=0;exitDy=0;exitPerimeter=0;" edge="1" parent="1" source="hDPaUhJNJjhnioEsnit0-9">
          <mxGeometry width="50" height="50" relative="1" as="geometry">
            <mxPoint x="696" y="638.98" as="sourcePoint" />
            <mxPoint x="690" y="738.98" as="targetPoint" />
          </mxGeometry>
        </mxCell>
        <mxCell id="hDPaUhJNJjhnioEsnit0-42" value="" style="endArrow=classic;html=1;rounded=0;exitX=1.005;exitY=0.33;exitDx=0;exitDy=0;exitPerimeter=0;entryX=0;entryY=0.25;entryDx=0;entryDy=0;fillColor=#e51400;strokeColor=#B20000;strokeWidth=11;" edge="1" parent="1" source="hDPaUhJNJjhnioEsnit0-6" target="hDPaUhJNJjhnioEsnit0-16">
          <mxGeometry relative="1" as="geometry">
            <mxPoint x="500" y="470" as="sourcePoint" />
            <mxPoint x="600" y="470" as="targetPoint" />
          </mxGeometry>
        </mxCell>
        <mxCell id="hDPaUhJNJjhnioEsnit0-43" value="Email" style="edgeLabel;resizable=0;html=1;;align=center;verticalAlign=middle;" connectable="0" vertex="1" parent="hDPaUhJNJjhnioEsnit0-42">
          <mxGeometry relative="1" as="geometry" />
        </mxCell>
        <mxCell id="hDPaUhJNJjhnioEsnit0-44" value="" style="endArrow=classic;html=1;rounded=0;entryX=0.25;entryY=1;entryDx=0;entryDy=0;exitX=0;exitY=0.5;exitDx=0;exitDy=0;strokeWidth=2;fillColor=#e51400;strokeColor=#B20000;" edge="1" parent="1" source="hDPaUhJNJjhnioEsnit0-8" target="hDPaUhJNJjhnioEsnit0-16">
          <mxGeometry relative="1" as="geometry">
            <mxPoint x="210" y="518.98" as="sourcePoint" />
            <mxPoint x="693" y="460" as="targetPoint" />
            <Array as="points">
              <mxPoint x="600" y="610" />
            </Array>
          </mxGeometry>
        </mxCell>
        <mxCell id="hDPaUhJNJjhnioEsnit0-45" value="Email" style="edgeLabel;resizable=0;html=1;;align=center;verticalAlign=middle;" connectable="0" vertex="1" parent="hDPaUhJNJjhnioEsnit0-44">
          <mxGeometry relative="1" as="geometry">
            <mxPoint x="36" y="-88" as="offset" />
          </mxGeometry>
        </mxCell>
        <mxCell id="hDPaUhJNJjhnioEsnit0-46" value="" style="endArrow=classic;html=1;rounded=0;exitX=0.5;exitY=0;exitDx=0;exitDy=0;entryX=0.42;entryY=0.017;entryDx=0;entryDy=0;fillColor=#e51400;strokeColor=#B20000;strokeWidth=2;entryPerimeter=0;" edge="1" parent="1" source="hDPaUhJNJjhnioEsnit0-18" target="hDPaUhJNJjhnioEsnit0-16">
          <mxGeometry relative="1" as="geometry">
            <mxPoint x="550" y="390" as="sourcePoint" />
            <mxPoint x="722" y="451" as="targetPoint" />
            <Array as="points">
              <mxPoint x="290" y="370" />
              <mxPoint x="540" y="370" />
            </Array>
          </mxGeometry>
        </mxCell>
        <mxCell id="hDPaUhJNJjhnioEsnit0-47" value="Email" style="edgeLabel;resizable=0;html=1;;align=center;verticalAlign=middle;" connectable="0" vertex="1" parent="hDPaUhJNJjhnioEsnit0-46">
          <mxGeometry relative="1" as="geometry">
            <mxPoint x="140" y="10" as="offset" />
          </mxGeometry>
        </mxCell>
        <mxCell id="hDPaUhJNJjhnioEsnit0-48" value="" style="endArrow=classic;html=1;rounded=0;exitX=0.5;exitY=1;exitDx=0;exitDy=0;" edge="1" parent="1">
          <mxGeometry width="50" height="50" relative="1" as="geometry">
            <mxPoint x="613" y="309.71000000000004" as="sourcePoint" />
            <mxPoint x="641" y="310.21000000000004" as="targetPoint" />
          </mxGeometry>
        </mxCell>
        <mxCell id="hDPaUhJNJjhnioEsnit0-49" value="= Echange de données" style="text;html=1;align=center;verticalAlign=middle;whiteSpace=wrap;rounded=0;" vertex="1" parent="1">
          <mxGeometry x="650" y="295" width="130" height="30" as="geometry" />
        </mxCell>
        <mxCell id="hDPaUhJNJjhnioEsnit0-50" value="" style="endArrow=classic;html=1;rounded=0;exitX=1.005;exitY=0.33;exitDx=0;exitDy=0;exitPerimeter=0;fillColor=#e51400;strokeColor=#B20000;strokeWidth=2;" edge="1" parent="1">
          <mxGeometry relative="1" as="geometry">
            <mxPoint x="610" y="334.5" as="sourcePoint" />
            <mxPoint x="650" y="335" as="targetPoint" />
          </mxGeometry>
        </mxCell>
        <mxCell id="hDPaUhJNJjhnioEsnit0-51" value="Email" style="edgeLabel;resizable=0;html=1;;align=center;verticalAlign=middle;" connectable="0" vertex="1" parent="hDPaUhJNJjhnioEsnit0-50">
          <mxGeometry relative="1" as="geometry" />
        </mxCell>
        <mxCell id="hDPaUhJNJjhnioEsnit0-52" value="= Envoi d&#39;Email d&#39;alerte" style="text;html=1;align=center;verticalAlign=middle;whiteSpace=wrap;rounded=0;" vertex="1" parent="1">
          <mxGeometry x="650" y="320" width="130" height="30" as="geometry" />
        </mxCell>
      </root>
    </mxGraphModel>
  </diagram>
  <diagram id="qsQh5eKzhyAmKh5oWRgn" name="Page-4">
    <mxGraphModel dx="1426" dy="743" grid="1" gridSize="10" guides="1" tooltips="1" connect="1" arrows="1" fold="1" page="1" pageScale="1" pageWidth="827" pageHeight="1169" math="0" shadow="0">
      <root>
        <mxCell id="0" />
        <mxCell id="1" parent="0" />
        <mxCell id="-J9UogU-um1X40kfq9Qh-1" value="" style="rounded=1;whiteSpace=wrap;html=1;fillColor=#cce5ff;strokeColor=#36393d;" vertex="1" parent="1">
          <mxGeometry x="50" y="230" width="730" height="460" as="geometry" />
        </mxCell>
        <mxCell id="-J9UogU-um1X40kfq9Qh-2" value="" style="rounded=1;whiteSpace=wrap;html=1;shadow=0;fillColor=#f8cecc;strokeColor=#b85450;" vertex="1" parent="1">
          <mxGeometry x="301" y="380" width="250" height="80" as="geometry" />
        </mxCell>
        <mxCell id="-J9UogU-um1X40kfq9Qh-3" value="Postgres_external" style="rounded=0;whiteSpace=wrap;html=1;" vertex="1" parent="1">
          <mxGeometry x="310" y="390" width="110" height="60" as="geometry" />
        </mxCell>
        <mxCell id="-J9UogU-um1X40kfq9Qh-4" value="Postgres_admin" style="rounded=0;whiteSpace=wrap;html=1;" vertex="1" parent="1">
          <mxGeometry x="441" y="390" width="100" height="60" as="geometry" />
        </mxCell>
        <mxCell id="-J9UogU-um1X40kfq9Qh-5" value="" style="rounded=1;whiteSpace=wrap;html=1;shadow=0;fillColor=#f8cecc;strokeColor=#b85450;" vertex="1" parent="1">
          <mxGeometry x="305" y="260" width="120" height="80" as="geometry" />
        </mxCell>
        <mxCell id="-J9UogU-um1X40kfq9Qh-6" value="Ingestion" style="rounded=0;whiteSpace=wrap;html=1;" vertex="1" parent="1">
          <mxGeometry x="315" y="270" width="100" height="60" as="geometry" />
        </mxCell>
        <mxCell id="-J9UogU-um1X40kfq9Qh-7" value="" style="rounded=1;whiteSpace=wrap;html=1;shadow=0;fillColor=#f8cecc;strokeColor=#b85450;" vertex="1" parent="1">
          <mxGeometry x="601" y="438.98" width="140" height="240" as="geometry" />
        </mxCell>
        <mxCell id="-J9UogU-um1X40kfq9Qh-8" value="Grafana" style="rounded=0;whiteSpace=wrap;html=1;" vertex="1" parent="1">
          <mxGeometry x="615" y="608.98" width="106" height="60" as="geometry" />
        </mxCell>
        <mxCell id="-J9UogU-um1X40kfq9Qh-9" value="Prometheus" style="rounded=0;whiteSpace=wrap;html=1;" vertex="1" parent="1">
          <mxGeometry x="618" y="528.98" width="106" height="60" as="geometry" />
        </mxCell>
        <mxCell id="-J9UogU-um1X40kfq9Qh-10" value="Docker_exporter" style="rounded=0;whiteSpace=wrap;html=1;" vertex="1" parent="1">
          <mxGeometry x="618" y="448.98" width="106" height="60" as="geometry" />
        </mxCell>
        <mxCell id="-J9UogU-um1X40kfq9Qh-11" value="" style="rounded=1;whiteSpace=wrap;html=1;shadow=0;fillColor=#f8cecc;strokeColor=#b85450;" vertex="1" parent="1">
          <mxGeometry x="65" y="498.98" width="250" height="170" as="geometry" />
        </mxCell>
        <mxCell id="-J9UogU-um1X40kfq9Qh-12" value="Spark_worker_2" style="rounded=0;whiteSpace=wrap;html=1;" vertex="1" parent="1">
          <mxGeometry x="199" y="595" width="106" height="60" as="geometry" />
        </mxCell>
        <mxCell id="-J9UogU-um1X40kfq9Qh-13" value="Spark_worker_1" style="rounded=0;whiteSpace=wrap;html=1;" vertex="1" parent="1">
          <mxGeometry x="79" y="595" width="106" height="60" as="geometry" />
        </mxCell>
        <mxCell id="-J9UogU-um1X40kfq9Qh-14" value="Spark_master" style="rounded=0;whiteSpace=wrap;html=1;" vertex="1" parent="1">
          <mxGeometry x="141" y="510" width="106" height="60" as="geometry" />
        </mxCell>
        <mxCell id="-J9UogU-um1X40kfq9Qh-15" value="" style="rounded=1;whiteSpace=wrap;html=1;shadow=0;fillColor=#f8cecc;strokeColor=#b85450;" vertex="1" parent="1">
          <mxGeometry x="601" y="300" width="120" height="80" as="geometry" />
        </mxCell>
        <mxCell id="-J9UogU-um1X40kfq9Qh-16" value="Mailhog" style="rounded=0;whiteSpace=wrap;html=1;" vertex="1" parent="1">
          <mxGeometry x="611" y="310" width="100" height="60" as="geometry" />
        </mxCell>
        <mxCell id="-J9UogU-um1X40kfq9Qh-17" value="" style="rounded=1;whiteSpace=wrap;html=1;shadow=0;fillColor=#f8cecc;strokeColor=#b85450;" vertex="1" parent="1">
          <mxGeometry x="90" y="330" width="160" height="120" as="geometry" />
        </mxCell>
        <mxCell id="-J9UogU-um1X40kfq9Qh-18" value="Airflow&lt;br&gt;(9 containeurs)" style="rounded=0;whiteSpace=wrap;html=1;" vertex="1" parent="1">
          <mxGeometry x="117" y="360" width="106" height="60" as="geometry" />
        </mxCell>
        <mxCell id="-J9UogU-um1X40kfq9Qh-19" value="" style="endArrow=classic;html=1;rounded=0;entryX=0.5;entryY=0;entryDx=0;entryDy=0;" edge="1" parent="1" source="-J9UogU-um1X40kfq9Qh-6" target="-J9UogU-um1X40kfq9Qh-3">
          <mxGeometry width="50" height="50" relative="1" as="geometry">
            <mxPoint x="421" y="500" as="sourcePoint" />
            <mxPoint x="471" y="450" as="targetPoint" />
          </mxGeometry>
        </mxCell>
        <mxCell id="-J9UogU-um1X40kfq9Qh-20" value="Yfinance" style="ellipse;whiteSpace=wrap;html=1;" vertex="1" parent="1">
          <mxGeometry x="305" y="155" width="80" height="50" as="geometry" />
        </mxCell>
        <mxCell id="-J9UogU-um1X40kfq9Qh-21" value="" style="endArrow=classic;html=1;rounded=0;exitX=0.5;exitY=1;exitDx=0;exitDy=0;entryX=0.29;entryY=0;entryDx=0;entryDy=0;entryPerimeter=0;" edge="1" parent="1" source="-J9UogU-um1X40kfq9Qh-20" target="-J9UogU-um1X40kfq9Qh-6">
          <mxGeometry width="50" height="50" relative="1" as="geometry">
            <mxPoint x="441" y="370" as="sourcePoint" />
            <mxPoint x="491" y="320" as="targetPoint" />
          </mxGeometry>
        </mxCell>
        <mxCell id="-J9UogU-um1X40kfq9Qh-22" value="" style="endArrow=classic;html=1;rounded=0;exitX=1;exitY=0.5;exitDx=0;exitDy=0;entryX=0.009;entryY=0.117;entryDx=0;entryDy=0;entryPerimeter=0;" edge="1" parent="1" source="-J9UogU-um1X40kfq9Qh-18" target="-J9UogU-um1X40kfq9Qh-3">
          <mxGeometry width="50" height="50" relative="1" as="geometry">
            <mxPoint x="351" y="450" as="sourcePoint" />
            <mxPoint x="401" y="400" as="targetPoint" />
          </mxGeometry>
        </mxCell>
        <mxCell id="-J9UogU-um1X40kfq9Qh-23" value="" style="endArrow=classic;html=1;rounded=0;exitX=0;exitY=0.5;exitDx=0;exitDy=0;entryX=0.998;entryY=0.861;entryDx=0;entryDy=0;entryPerimeter=0;" edge="1" parent="1" source="-J9UogU-um1X40kfq9Qh-3" target="-J9UogU-um1X40kfq9Qh-18">
          <mxGeometry width="50" height="50" relative="1" as="geometry">
            <mxPoint x="261" y="430" as="sourcePoint" />
            <mxPoint x="311" y="380" as="targetPoint" />
          </mxGeometry>
        </mxCell>
        <mxCell id="-J9UogU-um1X40kfq9Qh-24" value="" style="endArrow=classic;html=1;rounded=0;exitX=0.25;exitY=1;exitDx=0;exitDy=0;entryX=0.117;entryY=0.029;entryDx=0;entryDy=0;entryPerimeter=0;" edge="1" parent="1" target="-J9UogU-um1X40kfq9Qh-14">
          <mxGeometry width="50" height="50" relative="1" as="geometry">
            <mxPoint x="152.5" y="419.9999999999999" as="sourcePoint" />
            <mxPoint x="300" y="450" as="targetPoint" />
          </mxGeometry>
        </mxCell>
        <mxCell id="-J9UogU-um1X40kfq9Qh-25" value="" style="endArrow=classic;html=1;rounded=0;exitX=0.5;exitY=0;exitDx=0;exitDy=0;entryX=0.639;entryY=1;entryDx=0;entryDy=0;entryPerimeter=0;" edge="1" parent="1" source="-J9UogU-um1X40kfq9Qh-14">
          <mxGeometry width="50" height="50" relative="1" as="geometry">
            <mxPoint x="140" y="450" as="sourcePoint" />
            <mxPoint x="193.73400000000015" y="419.9999999999999" as="targetPoint" />
          </mxGeometry>
        </mxCell>
        <mxCell id="-J9UogU-um1X40kfq9Qh-26" value="" style="endArrow=classic;html=1;rounded=0;exitX=0;exitY=1;exitDx=0;exitDy=0;entryX=0.25;entryY=0;entryDx=0;entryDy=0;" edge="1" parent="1" source="-J9UogU-um1X40kfq9Qh-14" target="-J9UogU-um1X40kfq9Qh-13">
          <mxGeometry width="50" height="50" relative="1" as="geometry">
            <mxPoint x="250" y="500" as="sourcePoint" />
            <mxPoint x="300" y="450" as="targetPoint" />
          </mxGeometry>
        </mxCell>
        <mxCell id="-J9UogU-um1X40kfq9Qh-27" value="" style="endArrow=classic;html=1;rounded=0;exitX=0.571;exitY=0.069;exitDx=0;exitDy=0;entryX=0.25;entryY=1;entryDx=0;entryDy=0;exitPerimeter=0;" edge="1" parent="1" source="-J9UogU-um1X40kfq9Qh-13" target="-J9UogU-um1X40kfq9Qh-14">
          <mxGeometry width="50" height="50" relative="1" as="geometry">
            <mxPoint x="155" y="580" as="sourcePoint" />
            <mxPoint x="120" y="605" as="targetPoint" />
          </mxGeometry>
        </mxCell>
        <mxCell id="-J9UogU-um1X40kfq9Qh-28" value="" style="endArrow=classic;html=1;rounded=0;exitX=0.75;exitY=0;exitDx=0;exitDy=0;entryX=0.953;entryY=1.028;entryDx=0;entryDy=0;entryPerimeter=0;" edge="1" parent="1" source="-J9UogU-um1X40kfq9Qh-12" target="-J9UogU-um1X40kfq9Qh-14">
          <mxGeometry width="50" height="50" relative="1" as="geometry">
            <mxPoint x="190" y="619" as="sourcePoint" />
            <mxPoint x="218" y="590" as="targetPoint" />
          </mxGeometry>
        </mxCell>
        <mxCell id="-J9UogU-um1X40kfq9Qh-29" value="" style="endArrow=classic;html=1;rounded=0;exitX=0.56;exitY=1;exitDx=0;exitDy=0;entryX=0.25;entryY=0;entryDx=0;entryDy=0;exitPerimeter=0;" edge="1" parent="1" source="-J9UogU-um1X40kfq9Qh-14" target="-J9UogU-um1X40kfq9Qh-12">
          <mxGeometry width="50" height="50" relative="1" as="geometry">
            <mxPoint x="287" y="603" as="sourcePoint" />
            <mxPoint x="250" y="580" as="targetPoint" />
          </mxGeometry>
        </mxCell>
        <mxCell id="-J9UogU-um1X40kfq9Qh-30" value="" style="endArrow=classic;html=1;rounded=0;exitX=1;exitY=0.25;exitDx=0;exitDy=0;entryX=0;entryY=0.313;entryDx=0;entryDy=0;entryPerimeter=0;" edge="1" parent="1" source="-J9UogU-um1X40kfq9Qh-3" target="-J9UogU-um1X40kfq9Qh-4">
          <mxGeometry width="50" height="50" relative="1" as="geometry">
            <mxPoint x="441" y="430" as="sourcePoint" />
            <mxPoint x="491" y="380" as="targetPoint" />
          </mxGeometry>
        </mxCell>
        <mxCell id="-J9UogU-um1X40kfq9Qh-31" value="" style="endArrow=classic;html=1;rounded=0;exitX=0.012;exitY=0.607;exitDx=0;exitDy=0;entryX=0.995;entryY=0.62;entryDx=0;entryDy=0;entryPerimeter=0;exitPerimeter=0;" edge="1" parent="1" source="-J9UogU-um1X40kfq9Qh-4" target="-J9UogU-um1X40kfq9Qh-3">
          <mxGeometry width="50" height="50" relative="1" as="geometry">
            <mxPoint x="421" y="400" as="sourcePoint" />
            <mxPoint x="442" y="404" as="targetPoint" />
          </mxGeometry>
        </mxCell>
        <mxCell id="-J9UogU-um1X40kfq9Qh-32" value="" style="rounded=1;whiteSpace=wrap;html=1;fillColor=#cce5ff;strokeColor=#36393d;" vertex="1" parent="1">
          <mxGeometry x="420" y="145" width="40" height="20" as="geometry" />
        </mxCell>
        <mxCell id="-J9UogU-um1X40kfq9Qh-33" value="= Docker / Serveur" style="text;html=1;align=center;verticalAlign=middle;whiteSpace=wrap;rounded=0;" vertex="1" parent="1">
          <mxGeometry x="460" y="140" width="110" height="30" as="geometry" />
        </mxCell>
        <mxCell id="-J9UogU-um1X40kfq9Qh-34" value="" style="rounded=1;whiteSpace=wrap;html=1;fillColor=#f8cecc;strokeColor=#b85450;" vertex="1" parent="1">
          <mxGeometry x="420" y="170" width="40" height="20" as="geometry" />
        </mxCell>
        <mxCell id="-J9UogU-um1X40kfq9Qh-35" value="= Docker Compose" style="text;html=1;align=center;verticalAlign=middle;whiteSpace=wrap;rounded=0;" vertex="1" parent="1">
          <mxGeometry x="462" y="165" width="110" height="30" as="geometry" />
        </mxCell>
        <mxCell id="-J9UogU-um1X40kfq9Qh-36" value="" style="rounded=0;whiteSpace=wrap;html=1;" vertex="1" parent="1">
          <mxGeometry x="424" y="195" width="32" height="20" as="geometry" />
        </mxCell>
        <mxCell id="-J9UogU-um1X40kfq9Qh-37" value="&amp;nbsp;= Containeur" style="text;html=1;align=center;verticalAlign=middle;whiteSpace=wrap;rounded=0;" vertex="1" parent="1">
          <mxGeometry x="462" y="190" width="80" height="30" as="geometry" />
        </mxCell>
        <mxCell id="-J9UogU-um1X40kfq9Qh-38" value="" style="endArrow=classic;html=1;rounded=0;entryX=0.995;entryY=0.518;entryDx=0;entryDy=0;entryPerimeter=0;exitX=0.987;exitY=0.348;exitDx=0;exitDy=0;exitPerimeter=0;" edge="1" parent="1" source="-J9UogU-um1X40kfq9Qh-10" target="-J9UogU-um1X40kfq9Qh-1">
          <mxGeometry width="50" height="50" relative="1" as="geometry">
            <mxPoint x="730" y="470.98" as="sourcePoint" />
            <mxPoint x="791.46" y="472.98" as="targetPoint" />
          </mxGeometry>
        </mxCell>
        <mxCell id="-J9UogU-um1X40kfq9Qh-39" value="" style="endArrow=classic;html=1;rounded=0;entryX=0.976;entryY=0.69;entryDx=0;entryDy=0;entryPerimeter=0;" edge="1" parent="1" target="-J9UogU-um1X40kfq9Qh-10">
          <mxGeometry width="50" height="50" relative="1" as="geometry">
            <mxPoint x="780" y="490" as="sourcePoint" />
            <mxPoint x="819" y="469.98" as="targetPoint" />
          </mxGeometry>
        </mxCell>
        <mxCell id="-J9UogU-um1X40kfq9Qh-40" value="" style="endArrow=classic;html=1;rounded=0;entryX=0.443;entryY=-0.017;entryDx=0;entryDy=0;entryPerimeter=0;exitX=0.5;exitY=1;exitDx=0;exitDy=0;" edge="1" parent="1" source="-J9UogU-um1X40kfq9Qh-10" target="-J9UogU-um1X40kfq9Qh-9">
          <mxGeometry width="50" height="50" relative="1" as="geometry">
            <mxPoint x="818" y="491.98" as="sourcePoint" />
            <mxPoint x="750" y="488.98" as="targetPoint" />
          </mxGeometry>
        </mxCell>
        <mxCell id="-J9UogU-um1X40kfq9Qh-41" value="" style="endArrow=classic;html=1;rounded=0;exitX=0.406;exitY=1.017;exitDx=0;exitDy=0;exitPerimeter=0;" edge="1" parent="1" source="-J9UogU-um1X40kfq9Qh-9">
          <mxGeometry width="50" height="50" relative="1" as="geometry">
            <mxPoint x="666" y="508.98" as="sourcePoint" />
            <mxPoint x="660" y="608.98" as="targetPoint" />
          </mxGeometry>
        </mxCell>
        <mxCell id="-J9UogU-um1X40kfq9Qh-42" value="" style="endArrow=classic;html=1;rounded=0;exitX=1.005;exitY=0.33;exitDx=0;exitDy=0;exitPerimeter=0;entryX=0;entryY=0.25;entryDx=0;entryDy=0;fillColor=#e51400;strokeColor=#B20000;strokeWidth=2;" edge="1" parent="1" source="-J9UogU-um1X40kfq9Qh-6" target="-J9UogU-um1X40kfq9Qh-16">
          <mxGeometry relative="1" as="geometry">
            <mxPoint x="470" y="340" as="sourcePoint" />
            <mxPoint x="570" y="340" as="targetPoint" />
          </mxGeometry>
        </mxCell>
        <mxCell id="-J9UogU-um1X40kfq9Qh-43" value="Email" style="edgeLabel;resizable=0;html=1;;align=center;verticalAlign=middle;" connectable="0" vertex="1" parent="-J9UogU-um1X40kfq9Qh-42">
          <mxGeometry relative="1" as="geometry" />
        </mxCell>
        <mxCell id="-J9UogU-um1X40kfq9Qh-44" value="" style="endArrow=classic;html=1;rounded=0;entryX=0.25;entryY=1;entryDx=0;entryDy=0;exitX=0;exitY=0.5;exitDx=0;exitDy=0;strokeWidth=10;fillColor=#e51400;strokeColor=#B20000;" edge="1" parent="1" source="-J9UogU-um1X40kfq9Qh-8" target="-J9UogU-um1X40kfq9Qh-16">
          <mxGeometry relative="1" as="geometry">
            <mxPoint x="180" y="388.98" as="sourcePoint" />
            <mxPoint x="663" y="330" as="targetPoint" />
            <Array as="points">
              <mxPoint x="570" y="480" />
            </Array>
          </mxGeometry>
        </mxCell>
        <mxCell id="-J9UogU-um1X40kfq9Qh-45" value="Email" style="edgeLabel;resizable=0;html=1;;align=center;verticalAlign=middle;" connectable="0" vertex="1" parent="-J9UogU-um1X40kfq9Qh-44">
          <mxGeometry relative="1" as="geometry">
            <mxPoint x="36" y="-88" as="offset" />
          </mxGeometry>
        </mxCell>
        <mxCell id="-J9UogU-um1X40kfq9Qh-46" value="" style="endArrow=classic;html=1;rounded=0;exitX=0.5;exitY=0;exitDx=0;exitDy=0;entryX=0.42;entryY=0.017;entryDx=0;entryDy=0;fillColor=#e51400;strokeColor=#B20000;strokeWidth=2;entryPerimeter=0;" edge="1" parent="1" source="-J9UogU-um1X40kfq9Qh-18" target="-J9UogU-um1X40kfq9Qh-16">
          <mxGeometry relative="1" as="geometry">
            <mxPoint x="520" y="260" as="sourcePoint" />
            <mxPoint x="692" y="321" as="targetPoint" />
            <Array as="points">
              <mxPoint x="260" y="240" />
              <mxPoint x="510" y="240" />
            </Array>
          </mxGeometry>
        </mxCell>
        <mxCell id="-J9UogU-um1X40kfq9Qh-47" value="Email" style="edgeLabel;resizable=0;html=1;;align=center;verticalAlign=middle;" connectable="0" vertex="1" parent="-J9UogU-um1X40kfq9Qh-46">
          <mxGeometry relative="1" as="geometry">
            <mxPoint x="140" y="10" as="offset" />
          </mxGeometry>
        </mxCell>
        <mxCell id="-J9UogU-um1X40kfq9Qh-48" value="" style="endArrow=classic;html=1;rounded=0;exitX=0.5;exitY=1;exitDx=0;exitDy=0;" edge="1" parent="1">
          <mxGeometry width="50" height="50" relative="1" as="geometry">
            <mxPoint x="583" y="179.71000000000004" as="sourcePoint" />
            <mxPoint x="611" y="180.21000000000004" as="targetPoint" />
          </mxGeometry>
        </mxCell>
        <mxCell id="-J9UogU-um1X40kfq9Qh-49" value="= Echange de données" style="text;html=1;align=center;verticalAlign=middle;whiteSpace=wrap;rounded=0;" vertex="1" parent="1">
          <mxGeometry x="620" y="165" width="130" height="30" as="geometry" />
        </mxCell>
        <mxCell id="-J9UogU-um1X40kfq9Qh-50" value="" style="endArrow=classic;html=1;rounded=0;exitX=1.005;exitY=0.33;exitDx=0;exitDy=0;exitPerimeter=0;fillColor=#e51400;strokeColor=#B20000;strokeWidth=2;" edge="1" parent="1">
          <mxGeometry relative="1" as="geometry">
            <mxPoint x="580" y="204.5" as="sourcePoint" />
            <mxPoint x="620" y="205" as="targetPoint" />
          </mxGeometry>
        </mxCell>
        <mxCell id="-J9UogU-um1X40kfq9Qh-51" value="Email" style="edgeLabel;resizable=0;html=1;;align=center;verticalAlign=middle;" connectable="0" vertex="1" parent="-J9UogU-um1X40kfq9Qh-50">
          <mxGeometry relative="1" as="geometry" />
        </mxCell>
        <mxCell id="-J9UogU-um1X40kfq9Qh-52" value="= Envoi d&#39;Email d&#39;alerte" style="text;html=1;align=center;verticalAlign=middle;whiteSpace=wrap;rounded=0;" vertex="1" parent="1">
          <mxGeometry x="620" y="190" width="130" height="30" as="geometry" />
        </mxCell>
      </root>
    </mxGraphModel>
  </diagram>
</mxfile>
